#!OML:ASF F:\VICON\USERDATA\INSTALL\rory3\rory3.ASF
:FULLY-SPECIFIED
:DEGREES
30
root 0.6425611053543416 17.873027375919847 14.87452426558576 -2.6154848224860663 -2.577680707033588 0.6546805217131797
lfemur -9.978911008498049 -7.01372362043919 -18.13247738032064
ltibia 19.02716546296402
lfoot -18.29529870865704 6.5584962606748585
ltoes 1.9239086950149562
rfemur -28.003382252062515 5.291845167086025 22.487012214976147
rtibia 39.21577822913669
rfoot -14.030862365497818 -20.298605261761132
rtoes 9.513885926437997
lowerback nan -0.10108522790614372 -1.555005575895349
upperback 1.3774959310164718 0.49631815804140056 1.2540278895899044
thorax -4.579869914783201 -0.10354989472925091 2.767765009914446
lowerneck -16.20684206176396 -2.6507765603727482 -1.5857959477985526
upperneck 20.225667130676776 -3.479216965500237 0.6774091004909537
head 8.950691196073967 -1.7418888432830784 0.01995812147972005
lclavicle 2.0922541343186743e-14 -8.365931513402252e-15
lhumerus -23.77053680484711 -5.040736422900446 84.08194082415478
lradius 31.975612799410904
lwrist 9.618722723681461
lhand -26.46977867167851 31.248635667532543
lfingers nan
lthumb -0.18186664822806514 60.900545552619974
rclavicle 2.0659104432558704e-14 -8.666138011959644e-15
rhumerus -26.23422276136693 -15.25189619440066 -81.72078611875109
rradius 26.825194990725386
rwrist 3.769384138802832
rhand -15.87739520283414 nan
rfingers nan
rthumb 10.293934155951648 -7.871034635765006
31
root 0.6266206585698805 17.869590665244193 15.451794420071906 -2.228379826959966 -2.137949231810078 0.8567013599624524
lfemur -6.848050252396057 -6.590769338876399 -18.21441240962325
ltibia 16.346525376640557
lfoot -18.002340152099535 6.135674457957069
ltoes -0.0280944660949638
rfemur -27.723800845236873 7.3931139038455385 21.001120691587857
rtibia 26.847495424352676
rfoot -13.120311070296193 -21.88671439240448
rtoes 15.737859236070912
lowerback nan -0.2822496087893923 -1.8857299846262399
upperback 1.4142786345407037 0.3354248757274497 1.3359583449178412
thorax -4.431321381216056 -0.2967234576061295 3.1806323314382707
lowerneck -16.468660374482965 -2.70679127389977 -1.7030553540189237
upperneck 20.208776715057855 -3.589293182517924 0.7493960188348661
head 8.969540213855392 -1.7858529451648344 0.04140628695873241
lclavicle 2.4232919321354997e-14 -1.3894897700820663e-15
lhumerus -22.087328854502083 -5.972284665520803 83.80950745590319
lradius 32.83129211432012
lwrist 10.037059675198952
lhand -26.100121583863597 34.75007805641494
lfingers nan
lthumb 0.19403236085673714 64.50921922121086
rclavicle 2.4290088828901093e-14 -2.2026396090974452e-15
rhumerus -25.874415683797864 -14.844222313488924 -82.0159957840257
rradius 27.148269464490838
rwrist 3.6209720013817783
rhand -15.939960869191344 nan
rfingers nan
rthumb 10.218717986454392 -9.56511966815696
32
root 0.5981060864975025 17.83696973779903 16.38583972591316 -1.9035747289703548 -1.3621800537582542 1.1732660411678526
lfemur -3.875760570463762 -6.673855283490244 -18.594027886611915
ltibia 13.218393971858404
lfoot -17.117702310260054 5.859227141173599
ltoes -3.1563091441728903
rfemur -26.394701657303436 10.351955736725731 18.18870712038235
rtibia 14.235926829173408
rfoot -13.48789241101327 -24.446527045549303
rtoes 15.228968331875244
lowerback nan -0.6638448458995635 -2.534090955945646
upperback 1.2747323669394695 -0.11244961986946667 1.3602067209859765
thorax -4.438339702949782 -0.6071521508076616 3.7405779479553445
lowerneck -16.140885229672268 -2.6089223328331625 -1.6419429053413186
upperneck 20.082989965583604 -3.4292293007983985 0.5712115575053276
head 8.87244437483446 -1.7491528988190168 -0.0051864814594844155
lclavicle 7.457603294469457e-15 5.78297199177629e-15
lhumerus -21.05619802977708 -6.704212963480937 83.55121739592403
lradius 33.459188618620324
lwrist 10.768198878231718
lhand -26.368056220651162 32.59868559826929
lfingers nan
lthumb -0.08837580703384773 62.37347220749601
rclavicle 6.737689718254858e-15 4.6773781851392795e-15
rhumerus -25.7103746884897 -13.862415200496269 -82.34998238583327
rradius 27.45480413968035
rwrist 3.2464242120627795
rhand -16.29518905883541 nan
rfingers nan
rthumb 9.883394465227699 -10.031388853239944
33
root 0.5602564032545152 17.817520942917042 16.89766123379174 -1.7138621304360184 -0.16777260440740216 1.5278359768699383
lfemur -0.8234503180423358 -7.05784533478384 -18.77515045312462
ltibia 10.674013027900376
lfoot -15.979082304619531 5.422520029438721
ltoes -2.989469848116959
rfemur -24.18085916615645 12.236053342556183 15.451405932940014
rtibia 3.966034449053055
rfoot -15.925455219794511 -23.674539705938916
rtoes 15.446108311537472
lowerback nan -1.1343671108024127 -2.8770417733032616
upperback 1.504702019833983 -0.4622194738620702 1.4142405680364887
thorax -3.948250967192172 -0.8838193757577244 3.880778536252931
lowerneck -16.315678967235886 -2.6188290773342064 -1.8652764342826793
upperneck 20.02389408573233 -3.429920299400356 0.6622148713830904
head 8.868359840027113 -1.7604649759772852 0.04852908884273409
lclavicle 1.842983116007949e-14 2.140670638047229e-14
lhumerus -19.91062240557653 -7.389342579748803 83.3957991287074
lradius 34.1101933871693
lwrist 9.820065745224248
lhand -28.12165463012367 32.91795167932126
lfingers nan
lthumb -1.7973442849001593 62.6982803669663
rclavicle 1.7415830399547544e-14 1.9957707233708967e-14
rhumerus -25.55986933987898 -13.409347478961914 -82.33718247341595
rradius 28.016459321306513
rwrist 2.522331659294535
rhand -14.693097241150829 nan
rfingers nan
rthumb 11.439633807343574 -9.127098027784708
34
root 0.49886949114916757 17.783687788816795 17.209352114861993 -1.4194322802951875 1.5765735231019744 1.9453819982197227
lfemur 0.7683295440520066 -8.324253278347195 -18.33210255579427
ltibia 10.536166868033284
lfoot -15.910545712225776 4.010494929619
ltoes -5.7728065779297
rfemur -22.749516496556954 12.884675306474207 13.758366863528448
rtibia 0.7518516632076881
rfoot -18.296465717780322 -23.512150228547753
rtoes 10.466934638851361
lowerback nan -1.6765730429172931 -3.290457994785659
upperback 1.2516949257428713 -0.8343601525108155 1.688264011811413
thorax -4.042852929585358 -1.0941349981127824 4.34561251429982
lowerneck -16.09883568684559 -2.6023044269140088 -1.9040530482966842
upperneck 20.096132296666383 -3.3758803898667 0.544826921497918
head 8.86785612758418 -1.7658540257495348 0.014273266506193288
lclavicle -8.91823423392828e-15 5.218091301966706e-15
lhumerus -19.706913682751196 -7.942031375470242 83.51805839199756
lradius 34.07015448397581
lwrist 9.73053357201254
lhand -28.81814206891294 29.288758021656726
lfingers nan
lthumb -2.470708510582295 59.06549164727607
rclavicle -9.42861352174149e-15 3.911282340039313e-15
rhumerus -25.92242721304649 -13.503469425935236 -81.8406410574857
rradius 27.78080472460002
rwrist 3.0469713762990605
rhand -15.287373302006102 nan
rfingers nan
rthumb 10.852053012851625 -7.3342475223704415
35
root 0.4029821916094716 17.734189906737683 16.91499549356746 -1.7544520362238112 0.7185040632676172 1.6586143554984951
lfemur 1.7637003479579878 -8.979550450666206 -18.10153723705504
ltibia 12.18473645546882
lfoot -15.257884852345803 3.93883787620499
ltoes -11.259174710946674
rfemur -22.94635726817656 8.70184128145571 16.415892168617177
rtibia 4.96243066233319
rfoot -12.174300529996742 -17.976341989535943
rtoes 11.639172598706713
lowerback nan -1.2524303819798694 -3.1443511811138105
upperback 1.4067759886428497 -0.1562928045399845 1.8295608119776487
thorax -4.01732099569223 -0.7740585473668713 4.232720980060384
lowerneck -16.154348350912628 -2.643195759576021 -1.8029565239017449
upperneck 20.056818287254494 -3.455581131189752 0.4918289706048162
head 8.852702770440969 -1.805769284455018 -0.02781825384994066
lclavicle 4.648862016944544e-14 -1.197537156148656e-15
lhumerus -19.440763672793693 -7.86585151622765 83.53046177502762
lradius 34.30312187039793
lwrist 9.05567716858543
lhand -29.08301719093269 28.94495961805883
lfingers nan
lthumb -2.6743006383204815 58.74736554551888
rclavicle 4.585886644991896e-14 -1.9230619365758922e-15
rhumerus -26.174037239880235 -12.697549492702665 -81.99566544344175
rradius 28.330025339615684
rwrist 1.9177850449682428
rhand -16.107771322488105 nan
rfingers nan
rthumb 10.068474804556368 -3.7656921963068584
36
root 0.32790731222424113 17.74797333787775 18.67572135199641 -1.986190735565806 1.283454794204137 1.5835481995641256
lfemur 2.4707557247578578 -9.963807584976593 -17.967211401208637
ltibia 14.151343907932667
lfoot -13.152807769748302 2.615415836170893
ltoes -5.576530991062867
rfemur -22.510547341265706 7.383941874869513 17.51695983628864
rtibia 9.418961985430393
rfoot -9.98582374200802 -15.941525463361206
rtoes 8.783989110857906
lowerback nan -1.4282881570836485 -3.253933977114631
upperback 1.198939453090481 -0.23333454549460875 1.9709289598048159
thorax -4.059853391484156 -0.8044706239700345 4.351125908204785
lowerneck -15.844649042902875 -2.5600513450379956 -1.9723168978088272
upperneck 20.162851843769758 -3.2954674788760614 0.5116309429572352
head 8.864603977297872 -1.7603881502882583 0.01770505329998348
lclavicle 4.814360348388887e-16 9.984691613978951e-15
lhumerus -20.735201080965787 -7.199659632183338 83.7437374206664
lradius 34.79909124427441
lwrist 8.64699540567852
lhand -26.64154422320831 27.305064130423062
lfingers nan
lthumb -0.24249915025435553 57.20188114513274
rclavicle 5.040191221354761e-16 9.501257680462889e-15
rhumerus -27.004321075922807 -13.106693556488988 -81.24331979427049
rradius 28.196165413726938
rwrist 3.6593525704911336
rhand -16.155035569797587 nan
rfingers nan
rthumb 10.048064845799253 -6.211963601202502
